<svg width="693" height="628" viewBox="0 0 693 628" fill="none" xmlns="http://www.w3.org/2000/svg">
<path d="M119.631 294.945C119.469 295.911 119.227 296.672 118.905 297.229C118.657 297.799 118.31 298.046 117.864 297.972C117.344 297.885 116.985 297.519 116.787 296.875C116.589 296.231 116.485 295.258 116.473 293.958C116.426 291.048 115.895 288.744 114.88 287.046C113.792 285.337 111.91 284.258 109.235 283.81L65.9924 276.573C62.5746 276.001 59.9617 275.641 58.1536 275.491C56.2712 275.328 54.9275 275.371 54.1223 275.618C53.3296 275.791 52.8463 276.168 52.6725 276.75C52.2755 277.753 51.9776 278.849 51.7786 280.038C51.5178 281.14 51.2258 282.657 50.9025 284.589L50.0259 289.827C49.7274 291.61 49.8005 293.455 50.2451 295.363C50.6278 297.184 51.4938 298.627 52.843 299.693C53.1772 299.978 53.6723 300.443 54.3282 301.087C54.9099 301.719 55.411 302.376 55.8317 303.058C56.2523 303.739 56.4129 304.377 56.3134 304.971C56.2637 305.269 56.0778 305.467 55.7557 305.565C55.4461 305.59 55.1055 305.571 54.734 305.509C53.991 305.385 53.2791 305.075 52.5982 304.579C50.6176 303.178 48.8473 302.118 47.2873 301.399C45.6655 300.592 43.7277 299.848 41.4742 299.165C40.2359 298.805 39.5365 298.421 39.3757 298.012C39.2274 297.529 39.1782 297.139 39.2279 296.842C39.2776 296.545 39.798 296.173 40.7891 295.728C41.7926 295.209 42.6164 294.85 43.2606 294.652C44.0782 294.331 44.8033 293.421 45.4359 291.923C46.081 290.351 46.5341 288.784 46.7952 287.224L53.3605 247.993C53.7957 245.393 54.0014 243.251 53.9778 241.566C53.9542 239.882 53.7818 238.402 53.4606 237.126C53.164 236.16 52.7992 235.373 52.3661 234.766C51.9455 234.084 51.8098 233.298 51.959 232.406C51.9963 232.183 52.3246 232.047 52.9439 231.998C53.4888 231.937 54.0585 231.956 54.6529 232.055C55.0244 232.117 55.5321 232.279 56.1759 232.539C56.8322 232.725 57.3398 232.887 57.6989 233.023C58.999 233.47 59.9276 233.854 60.4847 234.177C61.0542 234.425 61.5557 234.623 61.9891 234.772C62.4224 234.921 63.1221 235.076 64.088 235.238L65.4254 235.462C66.0941 235.574 66.8493 235.853 67.6912 236.299C68.4588 236.733 68.7928 237.248 68.6933 237.842C68.6063 238.362 68.1293 238.702 67.2622 238.863C66.3952 239.023 65.2309 239.134 63.7695 239.195C62.1595 239.231 60.7843 239.917 59.644 241.254C58.4294 242.579 57.5237 245.024 56.9269 248.59L55.0431 259.847C54.7695 261.481 54.7873 262.745 55.0963 263.637C55.4053 264.528 56.4328 265.235 58.1787 265.756C59.9246 266.278 62.8408 266.88 66.9273 267.564L110.727 274.894C113.402 275.342 115.539 274.897 117.137 273.561C118.661 272.212 119.914 270.206 120.894 267.544C121.328 266.319 121.743 265.433 122.14 264.889C122.537 264.344 122.995 264.115 123.515 264.202C123.961 264.277 124.209 264.624 124.258 265.243C124.381 265.875 124.362 266.674 124.2 267.64C123.865 269.646 123.511 271.305 123.138 272.617C122.853 273.868 122.573 275.082 122.3 276.258C122.027 277.434 121.747 278.877 121.461 280.586C121.15 282.443 120.914 284.084 120.752 285.508C120.602 286.858 120.44 288.282 120.266 289.781C120.178 291.217 119.967 292.939 119.631 294.945Z" fill="black"/>
<path d="M127.844 250.609C127.185 251.964 126.482 252.46 125.737 252.098C125.128 251.801 124.965 250.758 125.249 248.97C125.404 247.789 125.425 246.626 125.312 245.482C125.231 244.27 124.53 243.3 123.208 242.573L72.3004 217.806C70.4714 216.916 68.7312 216.446 67.0797 216.397C65.3605 216.314 63.937 217.088 62.8092 218.717C62.3771 219.261 61.7546 219.335 60.9417 218.94C60.332 218.643 60.0574 218.174 60.1178 217.534C60.2405 216.421 60.4117 215.122 60.6315 213.637C60.8842 212.084 61.1195 210.481 61.3374 208.828C61.4876 207.142 61.5892 205.641 61.6424 204.327C61.6387 203.99 61.6698 203.754 61.7358 203.618C61.8346 203.415 61.9848 203.279 62.1862 203.209C62.3876 203.139 62.5899 203.154 62.7931 203.253C63.1995 203.451 63.7259 203.832 64.3722 204.398C65.0514 204.896 66.2726 205.658 68.0357 206.683C69.7988 207.709 72.5094 209.111 76.1674 210.891L93.848 219.493C94.9318 220.02 95.7273 220.365 96.2345 220.528C96.7746 220.623 97.3476 220.651 97.9537 220.611C97.6681 219.131 97.4301 217.382 97.2398 215.362C97.0146 213.242 97.0074 211.019 97.218 208.692C97.4286 206.365 98.0447 204.151 99.0664 202.051C100.681 198.732 103.337 196.631 107.034 195.748C110.695 194.765 114.525 195.246 118.521 197.191L139.86 207.572C141.215 208.231 142.445 208.285 143.551 207.734C144.589 207.15 145.525 206.433 146.358 205.581C146.924 204.935 147.441 204.475 147.91 204.2C148.31 203.892 148.714 203.837 149.121 204.035C149.866 204.398 149.909 205.256 149.25 206.611C148.591 207.966 148.012 208.983 147.514 209.662C147.117 210.307 146.719 210.951 146.322 211.596C145.958 212.172 145.479 213.07 144.886 214.29C144.325 215.441 143.914 216.372 143.652 217.083C143.391 217.793 143.112 218.537 142.817 219.315C142.623 220.059 142.197 221.108 141.538 222.463C140.878 223.818 140.176 224.314 139.431 223.951C138.957 223.72 138.751 223.369 138.813 222.897C138.808 222.391 138.851 221.7 138.942 220.823C139.098 219.642 139.069 218.497 138.855 217.387C138.573 216.245 137.754 215.344 136.399 214.685L115.671 204.6C113.977 203.776 112.206 203.543 110.356 203.9C108.472 204.156 106.778 204.798 105.273 205.825C103.768 206.852 102.653 208.11 101.928 209.601C101.302 210.888 100.78 212.477 100.362 214.368C99.8771 216.227 99.7764 217.811 100.06 219.122C100.413 220.634 100.965 221.825 101.716 222.692C102.5 223.492 103.941 224.403 106.041 225.425L126.669 235.461C128.057 236.052 129.203 236.107 130.107 235.626C131.045 235.076 131.93 234.376 132.763 233.525C133.329 232.878 133.829 232.452 134.265 232.245C134.666 231.937 135.07 231.882 135.476 232.08C136.221 232.443 136.264 233.301 135.605 234.656C134.946 236.011 134.384 236.994 133.919 237.606C133.522 238.25 133.141 238.861 132.776 239.437C132.412 240.014 131.933 240.912 131.34 242.132C130.78 243.283 130.352 244.248 130.057 245.026C129.796 245.737 129.501 246.515 129.173 247.36C128.946 248.172 128.503 249.254 127.844 250.609Z" fill="black"/>
<path d="M163.999 191.285C161.416 194.524 158.366 196.716 154.849 197.862C151.333 199.009 147.592 199.108 143.626 198.161C139.601 197.166 135.674 195.142 131.847 192.089C128.431 189.364 125.95 186.132 124.403 182.393C122.845 178.548 122.245 174.649 122.604 170.695C122.964 166.741 124.365 163.233 126.807 160.171C128.687 157.815 130.825 156.101 133.224 155.027C135.623 153.953 138.075 153.596 140.582 153.957C143.076 154.213 145.413 155.21 147.592 156.948C149.417 158.404 149.626 160.016 148.216 161.782L133.348 180.421C132.69 181.246 132.456 182.023 132.645 182.752C132.823 183.375 133.559 184.204 134.855 185.237C137.681 187.492 140.766 188.941 144.108 189.583C147.391 190.179 150.562 190.009 153.619 189.076C156.618 188.095 159.104 186.368 161.077 183.894C162.487 182.128 163.431 180.279 163.911 178.349C164.378 176.313 164.411 174.219 164.008 172.066C163.901 171.596 163.865 171.278 163.901 171.114C163.877 170.902 163.935 170.708 164.076 170.531C164.452 170.06 164.934 170.059 165.523 170.529C166.642 171.422 167.456 172.938 167.965 175.079C168.379 176.855 168.505 178.69 168.343 180.584C168.181 182.479 167.719 184.326 166.957 186.127C166.254 187.976 165.268 189.695 163.999 191.285ZM130.75 178.06L137.163 170.022C138.29 168.608 139.224 167.377 139.964 166.329C140.703 165.281 141.361 164.216 141.936 163.132C142.112 162.791 142.076 162.473 141.828 162.18C141.569 161.78 141.145 161.345 140.556 160.875C138.848 159.513 136.795 159.128 134.395 159.719C131.984 160.205 129.956 161.479 128.312 163.54C127.232 164.894 126.563 166.578 126.307 168.59C125.993 170.555 126.072 172.449 126.545 174.272C127.018 176.095 127.844 177.476 129.021 178.416C129.61 178.885 130.187 178.767 130.75 178.06Z" fill="black"/>
<path d="M250.583 128.13C249.986 128.45 248.524 128.594 246.197 128.56C243.937 128.49 241.423 127.787 238.654 126.451C238.211 126.262 236.847 125.711 234.562 124.8C232.344 123.852 229.514 122.72 226.072 121.404C222.661 119.986 218.943 118.475 214.92 116.872C210.897 115.269 206.874 113.666 202.85 112.063C198.827 110.46 195.095 109 191.653 107.684C188.175 106.301 185.261 105.171 182.91 104.295C180.59 103.317 179.157 102.718 178.611 102.498C177.826 102.15 177.214 101.965 176.775 101.944C176.301 101.857 175.931 101.884 175.666 102.027C175.334 102.205 175.244 102.595 175.396 103.197C175.513 103.733 175.678 104.2 175.891 104.599C177.57 107.887 179.516 111.673 181.729 115.957C183.942 120.241 186.226 124.658 188.582 129.208C190.937 133.757 193.219 138.09 195.427 142.206C196.389 143.998 197.711 145.426 199.393 146.49C201.142 147.518 203.369 147.606 206.074 146.753C207.309 146.346 208.264 146.133 208.937 146.114C209.611 146.095 210.072 146.317 210.322 146.782C210.535 147.18 210.412 147.588 209.952 148.006C209.528 148.49 208.885 148.963 208.022 149.426C206.229 150.388 204.833 151.052 203.832 151.418C202.934 151.814 202.101 152.175 201.336 152.501C200.636 152.79 199.656 153.274 198.395 153.95C197.2 154.592 196.288 155.123 195.66 155.546C195.032 155.968 194.304 156.444 193.477 156.974C192.685 157.57 191.393 158.348 189.601 159.31C188.738 159.773 187.987 160.047 187.349 160.133C186.747 160.285 186.339 160.162 186.125 159.764C185.876 159.299 185.946 158.792 186.334 158.241C186.723 157.691 187.41 156.98 188.396 156.109C190.036 154.545 190.914 152.835 191.029 150.978C191.108 149.054 190.696 147.01 189.791 144.845C188.703 142.18 187.187 138.719 185.245 134.461C183.267 130.136 181.006 125.365 178.462 120.146C175.884 114.862 173.134 109.498 170.213 104.054C168.326 100.536 166.043 98.5121 163.365 97.9826C160.754 97.4174 157.738 97.4537 154.319 98.0915C153.982 98.1012 153.242 98.1562 152.099 98.2565C150.987 98.2548 150.27 97.9553 149.95 97.3578C149.629 96.7604 149.732 96.235 150.258 95.7817C150.749 95.262 151.16 94.9132 151.492 94.7351C153.453 93.7686 155.048 92.998 156.279 92.4233C157.474 91.7822 158.554 91.2455 159.519 90.8133C160.484 90.3811 161.548 89.8954 162.712 89.3563C163.841 88.7508 165.301 87.9673 167.093 87.0057C167.691 86.6851 168.245 86.6018 168.755 86.7556C169.265 86.9094 169.81 87.1296 170.391 87.4162C170.871 87.6721 172.339 88.3376 174.797 89.4127C177.285 90.3859 180.373 91.6788 184.059 93.2915C187.776 94.8023 191.835 96.4717 196.236 98.2998C200.601 100.062 204.983 101.856 209.384 103.685C213.749 105.446 217.807 107.116 221.56 108.693C225.278 110.203 228.347 111.463 230.769 112.472C233.258 113.445 234.724 114.026 235.167 114.216C235.575 114.339 236.154 114.541 236.904 114.823C237.72 115.069 238.327 115.085 238.725 114.872C239.323 114.551 239.28 113.676 238.599 112.247C238.1 111.317 237.156 109.558 235.767 106.969C234.409 104.278 232.733 101.074 230.738 97.3566C228.775 93.5372 226.617 89.4369 224.267 85.0557C221.916 80.6744 219.512 76.1936 217.055 71.6132C216.276 70.3212 214.938 69.5003 213.04 69.1505C211.143 68.8007 209.576 68.829 208.341 69.2353C207.106 69.6416 205.934 69.9281 204.827 70.0948C203.719 70.2616 203.041 70.1126 202.792 69.6479C202.578 69.2496 202.9 68.7348 203.758 68.1034C204.581 67.4056 205.424 66.8252 206.287 66.3622C206.95 66.006 207.581 65.6677 208.178 65.3471C208.842 64.991 209.473 64.6526 210.07 64.3321C210.734 63.9759 211.365 63.6376 211.962 63.317C213.555 62.4623 214.817 61.7856 215.746 61.2869C216.64 60.7219 217.6 60.1213 218.626 59.4851C219.719 58.8132 221.261 57.943 223.253 56.8746C224.116 56.4116 224.866 56.1372 225.504 56.0514C226.106 55.8992 226.514 56.0223 226.728 56.4206C227.227 57.3499 226.488 58.6014 224.511 60.175C222.304 61.9575 220.998 63.4275 220.593 64.5851C220.188 65.7427 220.365 67.1869 221.122 68.9177C221.301 69.2496 221.962 70.5619 223.106 72.8545C224.317 75.1115 225.849 77.9659 227.701 81.4178C229.553 84.8697 231.514 88.6049 233.585 92.6235C235.722 96.6064 237.859 100.589 239.996 104.572C242.097 108.489 243.985 112.007 245.659 115.127C246.513 116.72 247.33 118.163 248.109 119.455C248.918 120.645 249.606 121.687 250.171 122.581C250.7 123.408 251.089 124.054 251.339 124.519C251.908 125.581 252.032 126.369 251.71 126.884C251.49 127.43 251.114 127.845 250.583 128.13Z" fill="black"/>
<path d="M277.314 123.321C273.256 124.158 269.509 123.892 266.073 122.524C262.638 121.156 259.698 118.84 257.256 115.574C254.798 112.235 253.074 108.168 252.085 103.372C251.202 99.0932 251.362 95.0219 252.565 91.1585C253.827 87.2062 255.86 83.8254 258.665 81.0161C261.47 78.2069 264.791 76.4066 268.628 75.6152C271.579 75.0064 274.32 75.0564 276.85 75.7651C279.381 76.4738 281.494 77.7686 283.19 79.6495C284.944 81.4414 286.103 83.7023 286.666 86.4321C287.137 88.7193 286.267 90.0912 284.053 90.5477L260.702 95.3645C259.669 95.5776 258.992 96.0249 258.671 96.7064C258.409 97.299 258.445 98.4069 258.78 100.03C259.51 103.571 260.955 106.658 263.113 109.29C265.256 111.847 267.801 113.745 270.748 114.983C273.681 116.148 276.696 116.41 279.795 115.771C282.009 115.314 283.917 114.498 285.52 113.321C287.182 112.055 288.546 110.466 289.613 108.554C289.833 108.124 290.008 107.857 290.141 107.753C290.258 107.575 290.427 107.463 290.648 107.417C291.238 107.295 291.61 107.604 291.762 108.341C292.051 109.743 291.707 111.429 290.729 113.4C289.911 115.03 288.834 116.522 287.498 117.874C286.162 119.227 284.624 120.352 282.886 121.248C281.164 122.219 279.306 122.91 277.314 123.321ZM260.216 91.8881L270.287 89.8107C272.057 89.4455 273.562 89.0966 274.801 88.7641C276.04 88.4316 277.227 88.0329 278.362 87.5681C278.716 87.4182 278.891 87.1512 278.889 86.7671C278.945 86.294 278.897 85.6885 278.745 84.9507C278.304 82.8111 276.972 81.2013 274.749 80.1214C272.585 78.9525 270.212 78.6344 267.629 79.167C265.933 79.5171 264.342 80.3836 262.858 81.7665C261.359 83.0757 260.208 84.5822 259.406 86.2861C258.604 87.99 258.355 89.5797 258.659 91.0553C258.811 91.7931 259.33 92.0707 260.216 91.8881Z" fill="black"/>
<path d="M313.258 120.259C313.107 120.251 312.961 120.167 312.82 120.007C312.678 119.848 312.576 119.654 312.514 119.424L299.098 79.592C298.659 78.0573 297.902 76.8058 296.827 75.8377C295.755 74.7944 294.664 74.0895 293.554 73.723C292.965 73.4624 292.379 73.1642 291.795 72.8283C291.286 72.4969 291.047 72.0679 291.077 71.5415C291.104 71.0902 291.382 70.8423 291.913 70.7978C292.523 70.6824 293.017 70.6356 293.393 70.6575C294.37 70.7144 295.271 70.8045 296.093 70.9278C296.992 71.0556 297.888 71.2209 298.781 71.4238C299.679 71.5515 300.617 71.6439 301.595 71.7007C302.648 71.762 303.703 71.7857 304.76 71.7717C305.822 71.6826 306.844 71.6289 307.826 71.6106C308.883 71.5966 309.938 71.6203 310.991 71.6816C311.292 71.6991 311.739 71.8005 312.331 71.986C312.929 72.0962 313.214 72.3769 313.188 72.8281C313.157 73.3546 312.832 73.7507 312.213 74.0165C311.669 74.2867 311.09 74.5171 310.475 74.7077C309.71 74.8896 309.076 75.4186 308.572 76.2948C308.148 77.1002 307.905 78.0293 307.844 79.0822C307.787 80.0599 307.918 81.0485 308.237 82.0481L315.717 105.235C315.774 105.54 315.954 105.701 316.254 105.719C316.555 105.736 316.752 105.597 316.845 105.3L325.579 87.4717C326.012 86.5159 326.292 85.589 326.42 84.6909C326.623 83.7972 326.749 82.9367 326.797 82.1094C326.893 80.4549 326.333 79.064 325.115 77.9367C323.898 76.8094 322.666 75.9453 321.418 75.3445C320.829 75.0839 320.243 74.7856 319.659 74.4498C319.15 74.1183 318.911 73.6894 318.941 73.1629C318.967 72.7117 319.246 72.4638 319.777 72.4192C320.312 72.2994 320.805 72.2527 321.257 72.2789C322.309 72.3402 323.431 72.5187 324.621 72.8143C325.891 73.0391 327.579 73.2128 329.684 73.3353C331.79 73.4579 333.599 73.4877 335.112 73.4248C336.63 73.2867 337.99 73.2527 339.193 73.3227C339.569 73.3446 340.016 73.4461 340.534 73.6271C341.131 73.7373 341.417 74.0181 341.39 74.4693C341.36 74.9957 341.035 75.3919 340.416 75.6577C339.872 75.9279 339.292 76.1583 338.677 76.3489C337.833 76.6016 336.944 76.9649 336.011 77.4388C335.153 77.9171 334.684 78.8331 334.606 80.1868C334.579 80.638 334.586 81.1667 334.627 81.7727C334.746 82.3079 334.937 82.9227 335.198 83.617L342.392 105.882C342.72 106.731 342.997 107.162 343.222 107.175C343.523 107.192 343.846 106.834 344.19 106.099L353.926 86.6311C354.262 86.0469 354.494 85.3058 354.621 84.4077C354.824 83.514 354.941 82.8039 354.972 82.2775C355.05 80.9238 354.663 79.807 353.808 78.9272C352.954 78.0475 352.122 77.4331 351.312 77.0841C350.724 76.8235 350.137 76.5253 349.553 76.1894C349.044 75.858 348.805 75.429 348.836 74.9026C348.862 74.4513 349.14 74.2034 349.671 74.1588C350.282 74.0434 350.775 73.9967 351.151 74.0186C352.805 74.1149 354.115 74.3042 355.08 74.5868C356.048 74.7941 357.548 74.9568 359.579 75.075C361.008 75.1581 362.025 75.1796 362.631 75.1394C363.242 75.024 363.775 74.9418 364.23 74.8929C364.686 74.8439 365.327 74.8435 366.155 74.8917C366.606 74.9179 367.09 75.0216 367.608 75.2026C368.13 75.3085 368.378 75.587 368.352 76.0382C368.321 76.5647 367.996 76.9608 367.377 77.2266C366.833 77.4968 366.254 77.7272 365.639 77.9178C364.493 78.153 363.35 78.992 362.21 80.4349C361.074 81.8025 360.079 83.3293 359.227 85.0153L341.619 121.117C341.362 121.631 341.009 121.874 340.557 121.848C340.257 121.83 339.971 121.55 339.701 121.006L329.662 91.2183C329.472 90.6035 329.266 90.2519 329.045 90.1636C328.819 90.1505 328.534 90.5112 328.189 91.2457L314.206 119.522C313.95 120.035 313.634 120.281 313.258 120.259Z" fill="black"/>
<path d="M395.453 135.688C394.587 135.231 393.941 134.761 393.513 134.28C393.051 133.865 392.925 133.458 393.137 133.058C393.383 132.592 393.843 132.366 394.517 132.381C395.19 132.397 396.146 132.603 397.384 133.002C400.161 133.873 402.568 133.995 404.604 133.367C406.675 132.672 408.345 131.126 409.612 128.728L417.426 113.942C418.13 112.61 418.521 110.985 418.597 109.065C418.776 107.115 418.856 105.836 418.836 105.229L417.284 79.8697C417.24 78.8241 417.088 77.3379 416.829 75.4112C416.604 73.4179 416.227 71.4718 415.696 69.5727C415.233 67.7088 414.523 66.3112 413.567 65.3798C412.677 64.4836 412.021 63.7105 411.597 63.0607C411.24 62.4461 411.185 61.9057 411.432 61.4394C411.643 61.0398 412.05 60.9142 412.653 61.0626C413.292 61.1444 414.044 61.4141 414.91 61.8717C416.441 62.6813 418.171 63.6807 420.099 64.8699C422.062 65.9925 424.176 67.1521 426.44 68.3489C427.972 69.1585 429.422 69.882 430.789 70.5194C432.223 71.192 433.473 71.8099 434.538 72.3731C435.404 72.8307 436.051 73.3002 436.478 73.7816C436.94 74.1964 437.066 74.6036 436.855 75.0032C436.608 75.4695 436.131 75.7283 435.422 75.7797C434.748 75.7645 433.775 75.591 432.502 75.259C431.429 75.0326 430.504 74.9275 429.729 74.9437C428.953 74.96 428.372 75.3344 427.985 76.067C427.527 76.9329 427.327 78.3606 427.383 80.3501L427.598 102.192C427.593 105.427 427.856 107.185 428.389 107.466C428.789 107.678 429.363 107.64 430.11 107.354C430.893 107.001 432.088 106.353 433.693 105.412C436.456 103.891 439.001 102.381 441.326 100.883C443.652 99.3858 446.439 97.5783 449.688 95.4611C450.952 94.6808 451.929 93.9615 452.618 93.303C453.342 92.578 453.862 91.9157 454.179 91.3163C454.848 90.0508 454.839 88.9386 454.153 87.9795C453.534 87.0557 452.793 86.2808 451.931 85.6548C451.335 85.1696 450.726 84.5493 450.102 83.7939C449.581 83.007 449.443 82.3805 449.69 81.9143C449.901 81.5147 450.308 81.3891 450.911 81.5374C451.55 81.6192 452.302 81.8889 453.168 82.3465C454.7 83.1561 455.948 83.8582 456.912 84.4528C457.911 84.9808 459.143 85.632 460.608 86.4064C462.673 87.4976 464.655 88.5027 466.555 89.4217C468.491 90.274 470.024 90.9994 471.157 91.5978C472.022 92.0554 472.669 92.5249 473.096 93.0063C473.559 93.4211 473.684 93.8284 473.473 94.228C473.227 94.6942 472.465 94.8455 471.188 94.682C469.911 94.5184 468.468 94.2668 466.858 93.9273C464.88 93.4783 462.904 93.6697 460.931 94.5014C459.06 95.3016 456.503 96.592 453.262 98.3723C450.838 99.7331 448.791 100.866 447.119 101.772C445.514 102.713 443.995 103.572 442.562 104.349C441.196 105.16 439.761 106.021 438.258 106.931C436.79 107.774 434.997 108.829 432.879 110.095C431.274 111.036 430.076 111.852 429.286 112.541C428.495 113.231 427.855 113.958 427.366 114.722C426.913 115.42 426.334 116.435 425.63 117.767L417.604 132.952C416.407 135.217 416.121 137.451 416.745 139.656C417.405 141.794 418.844 143.747 421.062 145.516C422.088 146.314 422.798 146.987 423.19 147.535C423.582 148.083 423.655 148.59 423.408 149.056C423.197 149.456 422.79 149.581 422.186 149.433C421.548 149.351 420.796 149.082 419.93 148.624C418.132 147.674 416.668 146.815 415.54 146.048C414.443 145.383 413.379 144.736 412.349 144.106C411.318 143.476 410.037 142.757 408.505 141.947C406.84 141.067 405.357 140.326 404.056 139.724C402.822 139.157 401.522 138.554 400.154 137.917C398.818 137.382 397.251 136.639 395.453 135.688Z" fill="black"/>
<path d="M445.279 170.101C442.171 167.249 440.03 163.955 438.857 160.22C437.683 156.485 437.493 152.681 438.287 148.808C439.187 144.93 441.114 141.382 444.068 138.162C446.207 135.831 448.739 133.963 451.665 132.558C454.646 131.203 457.809 130.374 461.155 130.071C464.501 129.767 467.768 130.107 470.956 131.09C474.195 132.017 477.091 133.652 479.644 135.995C482.864 138.949 485.037 142.375 486.164 146.272C487.346 150.22 487.516 154.158 486.671 158.087C485.933 162.011 484.189 165.471 481.439 168.468C478.484 171.688 474.962 174.078 470.87 175.64C466.834 177.253 462.587 177.702 458.131 176.987C453.726 176.216 449.442 173.921 445.279 170.101ZM449.32 169.208C451.207 170.94 453.231 172.132 455.392 172.786C457.552 173.44 459.788 173.344 462.097 172.498C463.935 171.833 465.805 170.686 467.708 169.058C469.611 167.43 471.301 165.811 472.778 164.202C475.223 161.537 477.066 158.526 478.308 155.167C479.657 151.803 480.156 148.529 479.806 145.345C479.562 142.157 478.247 139.467 475.861 137.277C474.362 135.902 472.773 134.904 471.093 134.283C469.52 133.657 467.648 133.524 465.478 133.884C463.094 134.253 460.819 135.284 458.653 136.976C456.486 138.669 454.486 140.514 452.652 142.512C450.156 145.232 448.262 148.299 446.969 151.714C445.727 155.073 445.253 158.319 445.548 161.452C445.842 164.585 447.1 167.17 449.32 169.208Z" fill="black"/>
<path d="M465.256 188.501C464.813 187.892 464.573 187.368 464.534 186.93C464.435 186.537 464.568 186.208 464.934 185.942C465.421 185.588 465.859 185.549 466.246 185.826C466.695 186.059 467.254 186.445 467.924 186.982C469.07 187.919 470.116 188.462 471.063 188.612C472.116 188.779 473.068 188.553 473.922 187.933L493.578 173.654C495.224 172.459 496.479 171.174 497.344 169.801C498.208 168.428 498.24 166.869 497.438 165.124C497.321 164.836 497.319 164.512 497.43 164.152C497.541 163.792 497.718 163.524 497.962 163.346C498.572 162.904 499.136 162.912 499.657 163.372C501.296 164.603 503.192 165.739 505.346 166.782C507.605 167.841 509.394 168.637 510.711 169.169C511.221 169.358 511.572 169.521 511.766 169.66C512.065 169.815 512.259 169.954 512.348 170.076C512.569 170.38 512.466 170.688 512.04 170.998C511.857 171.131 511.378 171.432 510.602 171.902C509.87 172.434 508.995 173.023 507.976 173.671C507 174.379 506.003 175.057 504.984 175.704C504.862 175.793 504.845 175.898 504.934 176.02C506.861 176.11 508.702 176.402 510.458 176.895C512.258 177.45 513.874 178.138 515.308 178.959C516.787 179.84 517.947 180.86 518.788 182.018C519.718 183.298 520.196 184.533 520.223 185.724C520.294 186.976 519.903 187.912 519.05 188.531C518.44 188.974 517.637 189.278 516.64 189.444C515.687 189.67 514.738 189.709 513.79 189.559C512.843 189.409 512.149 189.029 511.706 188.419C511.44 188.054 511.213 187.613 511.025 187.098C510.898 186.538 510.78 185.926 510.669 185.262C510.498 184.641 510.326 184.021 510.155 183.4C509.984 182.78 509.721 182.226 509.367 181.738C508.304 180.276 506.746 179.22 504.691 178.57C502.681 177.982 500.152 178.795 497.105 181.009L478.637 194.424C477.845 194.999 477.484 195.913 477.555 197.165C477.688 198.372 478.063 199.915 478.683 201.793C478.987 202.596 479.18 203.247 479.263 203.746C479.346 204.244 479.174 204.648 478.747 204.958C478.077 205.445 477.299 205.079 476.413 203.86C475.085 202.032 474.158 200.564 473.633 199.456C473.09 198.453 472.244 197.159 471.093 195.574C470.34 194.538 469.69 193.707 469.142 193.081C468.638 192.516 468.09 191.89 467.498 191.202C466.889 190.621 466.142 189.72 465.256 188.501Z" fill="black"/>
<path d="M482.896 211.87C482.163 210.3 482.172 209.34 482.923 208.989C483.469 208.734 483.921 208.813 484.281 209.228C484.741 209.678 485.201 210.128 485.66 210.579C486.48 211.443 487.386 212.226 488.378 212.926C489.37 213.627 490.549 213.659 491.914 213.021L543.21 189.067C545.599 187.952 547.18 186.798 547.953 185.605C548.727 184.412 548.92 182.867 548.533 180.97C548.382 180.292 548.682 179.777 549.433 179.427C550.116 179.108 550.653 179.19 551.044 179.672C552.283 181.255 553.409 182.6 554.425 183.706C555.508 184.779 556.494 185.733 557.381 186.565C558.369 187.434 559.307 188.285 560.194 189.118C560.59 189.432 560.836 189.691 560.932 189.896C561.028 190.1 561.023 190.269 560.918 190.401C560.846 190.601 560.639 190.781 560.297 190.94C559.615 191.259 558.17 191.726 555.963 192.341C553.788 193.024 550.516 194.386 546.147 196.426L512.564 212.108C511.95 212.395 511.723 212.709 511.882 213.05C512.073 213.46 512.483 213.892 513.111 214.347C513.771 214.87 514.618 215.348 515.651 215.78C519.347 217.463 522.581 218.78 525.353 219.73C528.224 220.717 530.195 221.376 531.265 221.708C531.834 221.858 532.252 221.954 532.521 221.995C532.858 222.004 533.094 221.976 533.231 221.913C533.572 221.753 533.736 221.303 533.722 220.561C533.74 219.887 533.674 219.211 533.524 218.533C533.346 217.619 533.496 217.05 533.974 216.827C534.315 216.667 534.684 216.744 535.08 217.058C535.544 217.34 535.935 217.823 536.254 218.505L538.597 223.522C539.107 224.614 539.735 225.693 540.482 226.758C541.261 227.891 541.991 228.921 542.674 229.849C543.389 230.846 543.89 231.651 544.177 232.266C544.623 233.221 544.505 233.858 543.822 234.177C543.413 234.368 542.926 234.305 542.361 233.986C541.865 233.636 541.339 233.133 540.784 232.478C539.837 231.341 538.785 230.335 537.629 229.462C536.505 228.656 535.447 227.903 534.454 227.203C533.99 226.921 532.793 226.316 530.863 225.388C529.033 224.496 526.887 223.462 524.425 222.283C521.994 221.174 519.68 220.134 517.481 219.165C516.881 218.947 516.444 218.902 516.171 219.029C516.102 219.061 516.016 219.143 515.911 219.275C515.807 219.407 515.702 219.539 515.597 219.671C514.242 222.466 512.916 225.413 511.62 228.512C510.323 231.612 509.22 234.414 508.311 236.917C507.433 239.488 506.812 241.275 506.449 242.276C505.898 243.947 505.514 245.706 505.296 247.553C505.178 249.438 505.188 250.971 505.325 252.155C505.402 253.033 505.482 253.827 505.564 254.537C505.678 255.315 505.462 255.832 504.916 256.087C504.165 256.437 503.471 255.93 502.834 254.565C501.591 251.903 500.256 248.868 498.831 245.459C497.369 242.151 495.826 238.756 494.2 235.275C493.626 234.047 493.646 233.289 494.261 233.002C494.67 232.811 495.091 232.822 495.524 233.036C495.956 233.25 496.352 233.563 496.712 233.978C497.335 234.601 497.945 235.106 498.542 235.493C499.138 235.879 499.743 235.929 500.358 235.642C500.562 235.547 500.735 235.383 500.876 235.151C501.086 234.887 501.279 234.589 501.456 234.256L509.698 215.317C509.985 214.685 510.064 214.232 509.937 213.959C509.777 213.617 509.459 213.558 508.981 213.781C507.993 214.159 506.919 214.619 505.759 215.161C504.667 215.671 503.541 216.197 502.38 216.739C501.22 217.281 500.025 217.839 498.797 218.412C497.568 218.986 496.39 219.578 495.261 220.188C493.896 220.826 493.1 221.613 492.872 222.551C492.645 223.488 492.6 224.549 492.737 225.732C492.787 226.374 492.821 226.981 492.839 227.555C492.958 228.165 492.744 228.597 492.198 228.852C491.72 229.075 491.254 228.877 490.799 228.258C490.375 227.708 490.1 227.296 489.972 227.023C489.367 225.726 488.989 224.739 488.838 224.061C488.62 223.414 488.417 222.802 488.23 222.224C488.075 221.715 487.711 220.845 487.137 219.617C486.595 218.456 486.131 217.551 485.744 216.9C485.357 216.25 484.954 215.565 484.535 214.846C484.08 214.227 483.533 213.235 482.896 211.87Z" fill="black"/>
<path d="M508.127 274.897C508.07 273.92 508.138 273.123 508.329 272.509C508.444 271.898 508.728 271.58 509.179 271.554C510.081 271.502 510.83 272.704 511.424 275.16C512.116 277.987 513.106 280.119 514.397 281.553C515.687 282.988 517.685 283.627 520.393 283.471L571.159 280.543C573.866 280.386 575.826 279.707 577.04 278.505C578.253 277.304 578.893 275.305 578.958 272.509C579.034 271.222 579.243 270.267 579.585 269.643C580.001 269.015 580.473 268.686 580.999 268.656C581.451 268.63 581.769 268.914 581.954 269.507C582.214 270.095 582.373 270.878 582.429 271.856C582.546 273.887 582.637 275.466 582.702 276.594C582.767 277.722 582.79 278.777 582.772 279.759C582.832 280.812 582.906 282.091 582.993 283.595C583.075 285.024 583.185 286.263 583.321 287.311C583.532 288.356 583.712 289.515 583.861 290.789C584.014 292.138 584.154 293.904 584.279 296.085C584.787 304.884 583.886 311.501 581.576 315.935C579.346 320.441 575.147 322.871 568.98 323.227C566.423 323.374 564.141 323.053 562.133 322.264C560.205 321.545 558.804 320.796 557.929 320.016C556.656 318.882 555.653 317.846 554.92 316.907C554.262 315.964 553.503 314.574 552.642 312.737C552.549 312.441 552.353 312.301 552.052 312.319C551.826 312.332 551.647 312.493 551.514 312.802C551.087 314.563 550.512 316.369 549.789 318.222C549.07 320.15 548.08 321.942 546.817 323.6C545.634 325.328 543.98 326.744 541.855 327.848C539.81 329.022 537.133 329.705 533.824 329.896C529.687 330.134 526.377 329.646 523.892 328.431C521.412 327.292 519.48 325.856 518.097 324.125C516.715 322.394 515.564 320.762 514.646 319.23C513.308 316.968 512.212 314.315 511.357 311.271C510.502 308.226 509.951 304.56 509.704 300.274C509.647 299.296 509.638 297.825 509.676 295.861C509.713 293.897 509.667 291.787 509.537 289.53C509.424 287.575 509.291 285.923 509.138 284.573C508.984 283.224 508.827 281.799 508.665 280.299C508.432 278.879 508.253 277.078 508.127 274.897ZM514.42 301.586C514.611 304.895 515.541 307.935 517.21 310.707C518.879 313.478 521.042 315.654 523.699 317.237C526.431 318.815 529.414 319.51 532.648 319.324C535.581 319.155 537.96 318.527 539.783 317.441C541.683 316.35 543.197 315.131 544.326 313.783C545.456 312.435 546.254 311.219 546.719 310.136C547.265 309.124 547.777 307.547 548.257 305.407C548.813 303.262 548.993 300.497 548.798 297.113C548.659 294.706 548.072 293.042 547.038 292.121C546.009 291.275 545.118 290.873 544.366 290.917L521.916 292.212C518.757 292.394 516.657 293.27 515.616 294.839C514.654 296.479 514.255 298.728 514.42 301.586ZM551.885 295.69C552.002 297.72 552.353 299.888 552.939 302.194C553.529 304.574 554.531 306.894 555.944 309.151C556.443 309.953 557.594 310.943 559.398 312.121C561.201 313.3 563.72 313.796 566.954 313.61C569.135 313.484 571.33 312.942 573.538 311.985C575.822 311.023 577.686 309.331 579.131 306.908C580.576 304.486 581.164 300.943 580.895 296.28C580.717 293.196 580.186 291.19 579.303 290.26C578.423 289.405 577.119 289.027 575.389 289.127L555.76 290.26C553.804 290.372 552.638 291.081 552.26 292.386C551.958 293.686 551.833 294.787 551.885 295.69Z" fill="black"/>
<path d="M505.31 352.204C506.165 348.073 507.895 344.546 510.5 341.623C513.105 338.701 516.274 336.587 520.006 335.282C523.796 334.066 527.831 333.901 532.109 334.787C535.208 335.428 538.11 336.644 540.817 338.435C543.508 340.3 545.842 342.591 547.818 345.308C549.794 348.025 551.178 351.003 551.969 354.244C552.834 357.5 552.915 360.825 552.213 364.219C551.327 368.497 549.501 372.12 546.733 375.086C543.95 378.125 540.655 380.29 536.85 381.579C533.102 382.958 529.237 383.235 525.253 382.411C520.975 381.525 517.116 379.726 513.677 377.014C510.222 374.376 507.66 370.961 505.989 366.769C504.391 362.592 504.165 357.737 505.31 352.204ZM508.149 355.215C507.63 357.723 507.644 360.072 508.191 362.262C508.737 364.453 509.966 366.322 511.876 367.872C513.39 369.108 515.333 370.126 517.707 370.925C520.08 371.724 522.336 372.344 524.476 372.787C528.017 373.52 531.547 373.558 535.068 372.902C538.647 372.335 541.714 371.085 544.268 369.152C546.881 367.308 548.515 364.8 549.172 361.628C549.584 359.636 549.626 357.76 549.298 355.999C549.028 354.328 548.183 352.653 546.761 350.974C545.222 349.117 543.17 347.692 540.606 346.7C538.042 345.708 535.432 344.937 532.776 344.387C529.162 343.639 525.557 343.585 521.963 344.226C518.442 344.882 515.412 346.14 512.873 347.999C510.335 349.859 508.76 352.264 508.149 355.215Z" fill="black"/>
<path d="M492.753 392.178C494.18 388.774 496.343 386.536 499.243 385.464C502.114 384.462 505.599 384.82 509.698 386.538L533.876 396.672C534.432 396.905 534.901 396.857 535.284 396.527C535.737 396.227 536.254 395.382 536.837 393.992L537.099 393.367C537.245 393.02 537.584 392.794 538.117 392.691C538.691 392.687 539.221 392.786 539.707 392.99C539.846 393.048 540.011 393.24 540.202 393.565C540.392 393.89 540.508 394.101 540.548 394.2C540.938 395.997 541.387 397.656 541.894 399.175C542.371 400.764 542.872 402.199 543.397 403.481C543.962 404.861 544.496 406.024 544.998 406.97C545.2 407.463 545.361 407.857 545.482 408.153C545.643 408.547 545.651 408.918 545.506 409.266C545.36 409.613 545.16 409.896 544.904 410.116C544.62 410.405 544.249 410.413 543.792 410.14L539.32 407.653C538.585 407.263 537.991 407.219 537.539 407.519C537.086 407.819 536.67 408.421 536.292 409.324L531.312 421.205C531.196 421.483 530.851 421.624 530.277 421.629C529.773 421.662 529.208 421.548 528.583 421.286C527.957 421.024 527.376 420.658 526.838 420.187C526.369 419.746 526.193 419.386 526.31 419.108L530.634 408.791C531.362 407.054 531.704 405.849 531.659 405.177C531.585 404.574 530.853 403.982 529.463 403.399L508.933 394.794C506.154 393.629 503.718 393.302 501.625 393.814C499.532 394.325 498.019 395.692 497.087 397.916C496.243 399.931 495.727 401.552 495.539 402.78C495.42 404.037 495.484 405.249 495.731 406.414C495.812 406.611 495.823 406.779 495.765 406.918C495.648 407.196 495.402 407.297 495.025 407.221C494.689 407.243 494.347 407.182 494 407.036C493.652 406.891 493.205 406.009 492.658 404.391C492.082 402.842 491.735 400.941 491.618 398.687C491.472 396.502 491.85 394.332 492.753 392.178Z" fill="black"/>
<path d="M483.636 410.735C484.369 409.594 485.566 408.706 487.227 408.072C488.847 407.501 490.555 407.21 492.352 407.201C494.109 407.254 495.557 407.648 496.698 408.38C498.726 409.683 499.965 411.24 500.414 413.05C500.862 414.861 500.809 417.244 500.253 420.2L498.018 432.462C497.71 434.056 497.686 435.07 497.944 435.504C498.162 436.002 498.884 436.69 500.111 437.567L506.074 441.666C507.681 442.788 509.412 443.228 511.268 442.988C513.083 442.811 514.581 441.803 515.762 439.965C516.372 439.014 516.824 437.961 517.118 436.807C517.412 435.653 517.509 434.596 517.409 433.636C517.4 433.093 517.182 432.595 516.757 432.143C516.331 431.69 515.833 431.281 515.262 430.914C515.009 430.752 514.724 430.568 514.407 430.365C514.049 430.225 513.743 430.073 513.49 429.91C513.173 429.707 512.994 429.01 512.953 427.819C512.934 426.733 513.029 425.54 513.237 424.241C513.467 423.046 513.786 422.132 514.193 421.498C514.396 421.181 514.623 420.968 514.872 420.859C515.184 420.791 515.467 420.839 515.72 421.002C516.734 421.653 517.608 422.662 518.342 424.029C519.099 425.5 519.597 427.163 519.838 429.018C520.232 431.331 520.387 433.669 520.302 436.032C520.217 438.395 519.931 440.583 519.442 442.598C518.954 444.612 518.303 446.253 517.489 447.521C516.023 449.803 513.998 451.143 511.414 451.543C508.852 452.046 506.387 451.492 504.019 449.882L481.506 434.75C480.216 433.832 478.955 433.425 477.724 433.529C476.452 433.697 475.491 434.288 474.839 435.302C473.822 436.887 473.417 438.284 473.626 439.492C473.739 440.013 473.735 440.368 473.612 440.558C473.409 440.875 473.151 441.067 472.839 441.135C472.526 441.203 472.212 441.136 471.895 440.932C471.198 440.484 470.724 439.688 470.475 438.543C470.112 436.877 470.032 435.259 470.235 433.688C470.334 432.14 470.71 430.859 471.361 429.845C473.234 426.929 476.368 425.674 480.763 426.08L480.946 425.795C480.578 422.604 480.625 419.813 481.086 417.423C481.483 414.992 482.333 412.763 483.636 410.735ZM485.329 418.135C484.515 419.402 484.013 420.602 483.823 421.734C483.697 422.906 483.759 424.065 484.008 425.21C484.121 425.73 484.371 426.248 484.756 426.764C485.163 427.384 485.949 428.113 487.112 428.95L491.649 432.132C492.305 432.643 492.833 432.937 493.231 433.014C493.63 433.091 493.951 432.939 494.195 432.559C494.277 432.432 494.387 432.19 494.528 431.832C494.668 431.475 494.806 430.981 494.941 430.352C495.895 426.219 496.133 423.06 495.657 420.874C495.204 418.792 494.438 417.405 493.361 416.712C491.713 415.654 490.14 415.315 488.642 415.696C487.166 416.181 486.062 416.994 485.329 418.135Z" fill="black"/>
<path d="M469.218 436.569C469.703 436.095 470.186 435.781 470.667 435.627C471.042 435.471 471.387 435.555 471.703 435.879C472.124 436.31 472.226 436.737 472.008 437.161C471.843 437.638 471.542 438.247 471.108 438.988C470.51 439.993 470.018 441.053 469.632 442.167C469.247 443.282 469.58 444.378 470.633 445.455L487.612 462.832C489.033 464.287 490.406 465.369 491.73 466.076C492.999 466.837 494.519 466.721 496.288 465.73C496.609 465.627 496.903 465.55 497.17 465.5C497.49 465.504 497.807 465.668 498.123 465.991C498.702 466.584 498.776 467.144 498.344 467.671C496.931 469.999 495.975 472.092 495.474 473.951C494.973 475.81 494.578 477.723 494.289 479.691C494.232 479.956 494.177 480.169 494.121 480.328C494.065 480.594 493.956 480.805 493.794 480.963C493.687 481.069 493.553 481.094 493.394 481.039C493.181 481.036 492.995 480.954 492.837 480.792C492.469 480.415 491.786 479.555 490.79 478.212C489.792 476.975 488.925 475.979 488.187 475.225C487.977 475.009 487.766 474.794 487.556 474.578C487.344 474.469 487.185 474.414 487.078 474.413C486.93 478.034 486.252 481.329 485.046 484.298C483.785 487.32 481.889 490.068 479.357 492.543C476.716 495.122 473.481 496.177 469.651 495.706C465.821 495.236 462.353 493.411 459.246 490.232L442.426 473.016C441.373 471.939 440.285 471.58 439.162 471.94C438.092 472.353 437.021 472.82 435.949 473.341C435.36 473.6 434.772 473.806 434.184 473.959C433.595 474.219 433.09 474.133 432.669 473.702C432.353 473.379 432.357 473.006 432.682 472.584C432.954 472.107 433.251 471.711 433.574 471.395C434.652 470.342 435.54 469.58 436.238 469.109C436.883 468.584 437.502 468.085 438.093 467.612C438.685 467.139 439.465 466.429 440.435 465.482C441.351 464.587 442.079 463.823 442.619 463.19C443.159 462.557 443.726 461.897 444.32 461.212C444.808 460.525 445.59 459.655 446.668 458.602C446.937 458.339 447.34 458.05 447.877 457.737C448.306 457.422 448.679 457.427 448.995 457.75C449.416 458.181 449.517 458.662 449.298 459.192C449.078 459.828 448.831 460.438 448.558 461.021C448.013 462.08 447.521 463.14 447.083 464.2C446.697 465.315 447.03 466.411 448.083 467.488L464.667 484.461C466.984 486.832 469.447 488.006 472.058 487.983C474.667 488.067 477.103 487.056 479.365 484.951C481.304 483.056 482.686 481.074 483.509 479.006C484.385 476.992 484.941 474.974 485.177 472.953C485.182 472.526 485.054 472.072 484.794 471.59C484.585 471.161 484.323 470.785 484.008 470.462L464.975 450.983C463.923 449.906 462.835 449.547 461.712 449.907C460.589 450.266 459.518 450.733 458.499 451.308C456.944 452.195 455.903 452.37 455.377 451.831C455.061 451.507 454.985 451.16 455.149 450.789C455.26 450.364 455.586 449.889 456.124 449.362C457.202 448.309 458.117 447.521 458.869 446.997C459.514 446.472 460.133 445.973 460.724 445.5C461.315 445.028 462.096 444.317 463.066 443.37C463.982 442.475 464.71 441.711 465.25 441.078C465.736 440.497 466.276 439.864 466.87 439.179C467.358 438.492 468.14 437.622 469.218 436.569Z" fill="black"/>
<path d="M431.542 471.263C432.104 470.885 432.636 470.664 433.138 470.599C433.534 470.514 433.859 470.659 434.111 471.034C434.447 471.535 434.459 472.025 434.148 472.507C433.773 473.031 433.378 473.523 432.962 473.985C431.859 475.18 431.111 476.227 430.717 477.127C430.365 478.089 430.568 479.133 431.324 480.259L445.001 500.611C446.135 502.299 447.456 503.59 448.964 504.483C450.409 505.418 452.029 505.464 453.822 504.622C454.177 504.474 454.511 504.431 454.825 504.493C455.076 504.596 455.327 504.836 455.58 505.211C456.042 505.899 456.013 506.463 455.492 506.903C453.369 509.147 451.81 511.284 450.814 513.314C449.861 515.407 449.188 517.039 448.795 518.211C448.527 519.027 448.236 519.54 447.923 519.75C447.548 520.002 447.255 519.972 447.045 519.659C446.709 519.159 446.131 518.095 445.31 516.469C444.469 514.946 443.501 513.237 442.408 511.339C441.356 509.505 440.347 507.868 439.381 506.43L424.759 484.671C424.044 483.608 423.175 483.057 422.151 483.019C421.065 483.023 419.791 483.289 418.331 483.817C417.746 484.028 417.172 484.187 416.609 484.293C415.982 484.442 415.501 484.266 415.165 483.766C414.703 483.078 415.097 482.314 416.348 481.473C417.536 480.675 418.547 480.086 419.381 479.707C420.111 479.308 420.841 478.908 421.571 478.508C422.238 478.151 423.134 477.594 424.26 476.837C425.323 476.123 426.177 475.503 426.823 474.979C427.469 474.454 428.114 473.929 428.76 473.405C429.364 472.817 430.291 472.103 431.542 471.263ZM456.749 524.982C458.062 524.1 459.482 523.781 461.008 524.027C462.514 524.376 463.708 525.208 464.59 526.521C465.515 527.896 465.833 529.316 465.546 530.78C465.238 532.348 464.428 533.573 463.115 534.455C461.739 535.38 460.299 535.667 458.793 535.317C457.267 535.072 456.042 534.262 455.117 532.886C454.235 531.573 453.948 530.133 454.255 528.565C454.542 527.101 455.374 525.907 456.749 524.982Z" fill="black"/>
<path d="M394.47 491.276C397.895 489.707 401.403 489.136 404.996 489.563C408.551 490.089 411.841 491.482 414.865 493.743C417.851 496.104 420.207 499.168 421.933 502.935C423.971 507.387 424.863 511.867 424.608 516.376C424.284 520.915 422.964 525 420.649 528.628C418.365 532.326 415.237 535.084 411.264 536.903C406.812 538.942 402.359 539.531 397.905 538.671C396.801 538.431 396.092 537.969 395.778 537.284C395.527 536.736 395.485 536.01 395.651 535.105C395.816 534.201 396.132 533.352 396.597 532.559C397.094 531.834 397.651 531.331 398.267 531.048C398.61 530.891 398.999 530.837 399.436 530.886C399.904 531.003 400.406 531.105 400.942 531.19C402.982 531.665 405.162 531.992 407.482 532.173C409.802 532.353 411.578 532.161 412.811 531.596C416.167 530.059 418.185 527.229 418.866 523.106C419.509 519.083 418.67 514.537 416.349 509.469C414.875 506.25 412.857 503.653 410.295 501.677C407.665 499.733 404.84 498.541 401.822 498.101C398.734 497.692 395.752 498.146 392.876 499.463C390.889 500.373 389.318 501.465 388.162 502.74C387.037 504.084 386.029 505.954 385.138 508.351C385.064 508.55 384.94 508.731 384.766 508.894C384.623 509.125 384.483 509.272 384.346 509.335C383.593 509.68 382.997 509.373 382.557 508.414C382.369 508.003 382.287 507.461 382.31 506.787C382.296 506.214 382.406 505.459 382.64 504.523C383.109 502.652 383.861 500.857 384.897 499.14C385.965 497.491 387.314 496.003 388.944 494.677C390.505 493.382 392.347 492.248 394.47 491.276Z" fill="black"/>
<path d="M369.543 500.903C370.862 500.589 372.34 500.779 373.977 501.473C375.54 502.185 376.973 503.16 378.275 504.399C379.504 505.655 380.275 506.943 380.589 508.262C381.148 510.607 380.962 512.587 380.03 514.203C379.098 515.819 377.408 517.499 374.958 519.245L364.846 526.533C363.52 527.468 362.8 528.182 362.685 528.674C362.496 529.184 362.54 530.18 362.816 531.663L364.272 538.75C364.653 540.673 365.595 542.191 367.099 543.304C368.53 544.435 370.309 544.747 372.434 544.24C373.533 543.978 374.589 543.533 375.6 542.905C376.612 542.277 377.415 541.582 378.008 540.821C378.378 540.423 378.566 539.914 378.573 539.293C378.58 538.672 378.505 538.031 378.348 537.372C378.278 537.079 378.199 536.749 378.112 536.382C377.952 536.033 377.836 535.712 377.767 535.419C377.679 535.053 378.033 534.426 378.829 533.54C379.569 532.744 380.464 531.95 381.514 531.158C382.508 530.456 383.372 530.018 384.105 529.843C384.471 529.756 384.782 529.76 385.037 529.854C385.309 530.021 385.48 530.252 385.55 530.545C385.829 531.717 385.759 533.05 385.341 534.544C384.866 536.128 384.073 537.673 382.96 539.177C381.641 541.117 380.132 542.91 378.433 544.554C376.733 546.197 375.01 547.576 373.261 548.69C371.513 549.803 369.906 550.534 368.441 550.884C365.802 551.512 363.414 551.075 361.274 549.571C359.079 548.158 357.686 546.05 357.096 543.248L351.36 516.735C351.067 515.179 350.44 514.012 349.481 513.234C348.448 512.473 347.345 512.233 346.172 512.512C344.34 512.948 343.08 513.674 342.393 514.69C342.114 515.144 341.865 515.397 341.645 515.449C341.278 515.536 340.959 515.496 340.687 515.329C340.415 515.161 340.235 514.894 340.147 514.528C339.955 513.722 340.166 512.82 340.78 511.822C341.674 510.37 342.738 509.148 343.973 508.157C345.118 507.11 346.276 506.447 347.449 506.167C350.82 505.364 353.948 506.632 356.835 509.972L357.165 509.893C359.111 507.338 361.079 505.359 363.068 503.956C365.04 502.48 367.198 501.462 369.543 500.903ZM365.634 507.411C364.168 507.76 362.975 508.276 362.054 508.961C361.15 509.718 360.391 510.596 359.777 511.594C359.498 512.048 359.318 512.594 359.238 513.232C359.102 513.962 359.163 515.031 359.422 516.441L360.485 521.88C360.604 522.703 360.78 523.281 361.014 523.612C361.248 523.944 361.585 524.057 362.024 523.952C362.171 523.918 362.419 523.82 362.768 523.659C363.117 523.499 363.558 523.239 364.092 522.879C367.644 520.561 370.006 518.45 371.179 516.544C372.295 514.729 372.705 513.199 372.408 511.953C371.954 510.048 371.055 508.713 369.712 507.949C368.312 507.276 366.953 507.096 365.634 507.411Z" fill="black"/>
<path d="M339.614 508.401C339.989 508.372 340.483 508.41 341.096 508.514C341.627 508.548 341.91 508.791 341.945 509.242C341.991 509.843 341.76 510.276 341.252 510.542C340.674 510.888 340.093 511.198 339.51 511.469C338.412 511.932 337.355 512.429 336.338 512.96C335.327 513.567 334.879 514.622 334.995 516.124L339.37 572.908C339.537 575.086 340.089 576.857 341.026 578.22C341.892 579.664 343.279 580.502 345.186 580.733C345.798 580.837 346.136 581.302 346.2 582.128C346.258 582.879 346.03 583.35 345.516 583.541C343.597 584.142 341.942 584.723 340.55 585.283C339.163 585.919 337.889 586.546 336.728 587.165C335.492 587.789 334.29 588.372 333.123 588.916C332.834 589.089 332.614 589.181 332.464 589.193C332.314 589.205 332.193 589.101 332.1 588.881C331.938 588.742 331.852 588.598 331.84 588.448C331.788 587.772 331.825 586.296 331.952 584.019C332.01 581.824 331.842 578.172 331.448 573.064L327.108 516.731C326.993 515.229 326.389 514.256 325.297 513.811C324.211 513.441 323.09 513.112 321.934 512.823C321.316 512.644 320.732 512.425 320.183 512.165C319.565 511.986 319.233 511.596 319.186 510.995C319.152 510.544 319.432 510.258 320.027 510.137C320.541 509.946 320.986 509.836 321.362 509.807C322.789 509.697 323.959 509.683 324.872 509.764C325.704 509.775 326.536 509.787 327.368 509.798C328.125 509.815 329.179 509.772 330.531 509.668C331.808 509.569 332.857 509.451 333.677 509.312C334.497 509.173 335.318 509.034 336.138 508.896C336.953 508.682 338.111 508.517 339.614 508.401Z" fill="black"/>
<path d="M257.241 499.918C262.23 501.374 266.75 503.635 270.799 506.701C274.755 509.817 278.041 513.483 280.656 517.699C283.198 521.894 284.859 526.421 285.639 531.278C286.397 536.208 286.048 541.168 284.592 546.158C283.03 551.509 280.525 556.193 277.077 560.209C273.629 564.226 269.555 567.431 264.853 569.826C260.152 572.221 255.13 573.698 249.787 574.257C244.372 574.796 238.953 574.273 233.529 572.69C232.3 572.332 230.679 571.702 228.666 570.8C226.56 569.95 224.439 569.017 222.302 568.001C220.094 566.964 218.149 565.965 216.468 565.003C214.693 564.093 213.497 563.352 212.879 562.779C212.56 562.529 212.396 562.285 212.387 562.047C212.284 561.86 212.25 561.575 212.283 561.192C212.606 559.011 212.965 556.84 213.36 554.679C213.734 552.591 214.132 550.824 214.554 549.377C214.702 548.871 215.03 548.418 215.54 548.017C215.955 547.668 216.38 547.556 216.814 547.683C217.537 547.894 217.985 548.378 218.156 549.134C218.328 549.89 218.427 550.626 218.454 551.34C218.551 552.623 218.736 553.737 219.01 554.68C219.19 555.675 219.567 556.805 220.139 558.07C220.404 558.775 221.133 559.773 222.326 561.063C223.426 562.404 225.063 563.784 227.239 565.204C229.414 566.624 232.237 567.84 235.709 568.853C239.903 570.077 244 570.292 247.998 569.497C251.976 568.775 255.684 567.228 259.123 564.857C262.468 562.538 265.398 559.626 267.911 556.122C270.353 552.597 272.196 548.701 273.441 544.434C274.94 539.3 275.485 534.475 275.076 529.961C274.667 525.447 273.536 521.39 271.683 517.788C269.831 514.187 267.416 511.167 264.439 508.729C261.463 506.291 258.166 504.544 254.551 503.488C250.356 502.264 247.135 501.873 244.887 502.316C242.567 502.737 240.986 503.179 240.145 503.64C239.118 504.203 238.067 505.113 236.994 506.369C235.849 507.604 235.002 509.162 234.453 511.042C234.263 511.693 234.063 512.38 233.852 513.103C233.568 513.805 233.321 514.518 233.11 515.241C232.827 515.943 232.59 516.62 232.4 517.27C232.168 518.066 232.014 518.727 231.939 519.255C231.842 519.854 231.86 520.33 231.993 520.683C232.339 521.647 233.162 522.594 234.46 523.522C235.759 524.45 237.1 525.234 238.483 525.873C239.866 526.512 240.919 526.937 241.642 527.148C241.931 527.233 242.312 527.54 242.785 528.071C243.258 528.601 243.421 529.119 243.273 529.626C243.104 530.204 242.688 530.554 242.025 530.674C241.341 530.867 240.855 530.921 240.565 530.836C238.757 530.309 237.213 529.819 235.933 529.367C234.652 528.914 233.335 528.452 231.982 527.978C230.629 527.505 228.977 526.983 227.024 526.413C225.144 525.865 223.532 525.473 222.188 525.237C220.844 525.002 219.196 524.6 217.243 524.03C216.954 523.945 216.552 523.71 216.037 523.324C215.449 522.917 215.261 522.352 215.472 521.629C215.62 521.123 216.072 520.784 216.828 520.612C217.512 520.42 218.009 520.329 218.32 520.342C220.037 520.372 221.348 520.048 222.252 519.37C223.063 518.744 223.788 517.739 224.427 516.356C225.108 514.828 225.665 513.46 226.096 512.252C226.527 511.044 226.943 509.753 227.344 508.379L228.199 505.45C228.304 505.088 228.316 504.778 228.235 504.519C228.154 504.26 228.093 503.928 228.054 503.524C227.943 503.099 227.749 502.69 227.471 502.295C227.194 501.9 227.098 501.558 227.182 501.269C227.267 500.979 227.455 500.603 227.748 500.139C227.947 499.726 228.465 499.563 229.303 499.651C229.83 499.726 230.969 499.588 232.72 499.236C234.377 498.935 236.464 498.641 238.98 498.355C241.496 498.07 244.296 498.023 247.378 498.217C250.482 498.338 253.769 498.905 257.241 499.918Z" fill="black"/>
<path d="M220.573 484.573C221.725 485.289 222.63 486.473 223.288 488.124C223.883 489.736 224.199 491.44 224.235 493.236C224.207 494.993 223.835 496.447 223.119 497.599C221.846 499.646 220.308 500.908 218.504 501.383C216.701 501.858 214.317 501.84 211.353 501.328L199.059 499.272C197.461 498.989 196.447 498.979 196.017 499.244C195.522 499.468 194.845 500.2 193.985 501.44L189.975 507.463C188.877 509.086 188.462 510.824 188.729 512.676C188.933 514.488 189.963 515.971 191.818 517.125C192.778 517.721 193.837 518.158 194.995 518.435C196.154 518.711 197.212 518.793 198.17 518.679C198.713 518.662 199.208 518.437 199.654 518.005C200.1 517.572 200.502 517.068 200.86 516.492C201.019 516.237 201.198 515.949 201.397 515.629C201.532 515.269 201.679 514.961 201.838 514.705C202.037 514.386 202.731 514.196 203.921 514.138C205.007 514.103 206.201 514.18 207.503 514.369C208.701 514.582 209.62 514.887 210.26 515.285C210.58 515.484 210.796 515.707 210.908 515.954C210.981 516.265 210.938 516.549 210.779 516.805C210.142 517.828 209.146 518.717 207.79 519.471C206.331 520.249 204.675 520.772 202.823 521.04C200.516 521.468 198.181 521.657 195.817 521.607C193.454 521.557 191.261 521.302 189.24 520.844C187.218 520.385 185.568 519.758 184.288 518.963C181.985 517.531 180.615 515.526 180.178 512.947C179.637 510.393 180.154 507.921 181.73 505.529L196.529 482.797C197.428 481.493 197.817 480.226 197.694 478.997C197.507 477.728 196.902 476.775 195.879 476.138C194.279 475.144 192.877 474.76 191.672 474.986C191.153 475.107 190.798 475.108 190.606 474.989C190.286 474.79 190.09 474.535 190.017 474.224C189.944 473.912 190.007 473.597 190.206 473.277C190.644 472.573 191.433 472.088 192.575 471.822C194.235 471.435 195.851 471.331 197.425 471.511C198.974 471.587 200.261 471.944 201.284 472.58C204.227 474.41 205.528 477.525 205.187 481.926L205.475 482.105C208.66 481.69 211.451 481.696 213.848 482.121C216.284 482.483 218.526 483.3 220.573 484.573ZM213.199 486.375C211.919 485.579 210.712 485.095 209.578 484.922C208.404 484.813 207.246 484.892 206.105 485.158C205.586 485.279 205.072 485.535 204.562 485.928C203.948 486.345 203.231 487.141 202.411 488.317L199.296 492.899C198.794 493.563 198.508 494.095 198.437 494.495C198.366 494.894 198.523 495.213 198.906 495.452C199.034 495.531 199.278 495.638 199.638 495.773C199.997 495.908 200.493 496.039 201.124 496.165C205.27 497.058 208.433 497.25 210.612 496.742C212.687 496.258 214.063 495.472 214.739 494.385C215.773 492.721 216.089 491.143 215.686 489.651C215.179 488.183 214.35 487.091 213.199 486.375Z" fill="black"/>
<path d="M193.454 468.305C194.012 468.81 194.355 469.273 194.483 469.693C194.662 470.058 194.599 470.408 194.296 470.743C193.892 471.19 193.471 471.318 193.035 471.126C192.548 470.991 191.922 470.729 191.156 470.341C189.841 469.66 188.705 469.344 187.748 469.392C186.684 469.445 185.798 469.863 185.091 470.645L168.795 488.665C167.431 490.173 166.467 491.688 165.903 493.21C165.339 494.732 165.63 496.264 166.774 497.806C166.947 498.064 167.016 498.381 166.982 498.756C166.947 499.131 166.829 499.43 166.627 499.654C166.121 500.213 165.567 500.321 164.963 499.978C163.106 499.111 161.016 498.389 158.694 497.812C156.265 497.241 154.351 496.83 152.952 496.581C152.414 496.501 152.037 496.413 151.818 496.318C151.494 496.227 151.276 496.131 151.164 496.03C150.885 495.778 150.922 495.456 151.275 495.065C151.427 494.897 151.834 494.503 152.496 493.883C153.103 493.213 153.838 492.456 154.702 491.612C155.511 490.718 156.347 489.85 157.211 489.006C157.313 488.895 157.307 488.788 157.195 488.687C155.291 488.996 153.429 489.09 151.609 488.968C149.734 488.795 148.01 488.455 146.438 487.947C144.81 487.389 143.465 486.63 142.403 485.67C141.23 484.609 140.507 483.498 140.236 482.339C139.908 481.128 140.098 480.132 140.806 479.35C141.311 478.791 142.034 478.328 142.976 477.961C143.862 477.543 144.783 477.31 145.741 477.262C146.699 477.214 147.457 477.442 148.016 477.948C148.351 478.251 148.664 478.635 148.954 479.101C149.193 479.622 149.435 480.196 149.68 480.824C149.976 481.396 150.271 481.968 150.566 482.54C150.862 483.112 151.233 483.6 151.68 484.004C153.021 485.217 154.763 485.929 156.908 486.141C158.996 486.303 161.303 484.987 163.83 482.194L179.14 465.264C179.797 464.537 179.962 463.569 179.634 462.359C179.256 461.204 178.571 459.772 177.578 458.062C177.115 457.339 176.792 456.741 176.608 456.271C176.425 455.8 176.51 455.369 176.863 454.978C177.419 454.363 178.256 454.561 179.373 455.572C181.05 457.088 182.259 458.334 183.001 459.31C183.738 460.179 184.833 461.271 186.286 462.585C187.236 463.444 188.043 464.123 188.708 464.623C189.318 465.073 189.983 465.573 190.704 466.123C191.419 466.567 192.336 467.295 193.454 468.305Z" fill="black"/>
<path d="M151.744 419.855C151.833 419.976 151.868 420.277 151.849 420.759C151.786 421.181 151.693 421.436 151.572 421.526C150.966 421.973 150.072 422.538 148.892 423.222C147.606 423.89 146.569 424.514 145.78 425.096L145.235 425.498C147.3 425.379 149.798 425.783 152.729 426.71C155.659 427.638 158.243 429.617 160.479 432.648C163.027 436.104 164.332 439.776 164.391 443.663C164.406 447.491 163.503 451.152 161.682 454.648C159.816 458.084 157.368 460.92 154.337 463.156C150.82 465.749 146.913 467.368 142.613 468.012C138.314 468.655 134.077 468.177 129.901 466.577C125.68 464.916 122.004 461.964 118.874 457.72C117.98 456.508 117.207 455.206 116.555 453.814C115.798 452.407 115.294 451.28 115.045 450.435C114.824 449.755 114.625 449.294 114.446 449.051C114.133 448.627 113.249 448.951 111.794 450.025L98.8806 459.55C96.395 461.383 95.0185 463.007 94.7511 464.421C94.4836 465.835 94.7653 467.359 95.596 468.993C95.8773 469.628 95.6844 470.192 95.0176 470.684C94.4719 471.086 93.9293 471.112 93.3897 470.761C90.7552 468.585 88.5759 466.963 86.8517 465.895C85.1275 464.826 83.7704 464.002 82.7806 463.422C82.4805 463.269 82.2634 463.101 82.1292 462.919C81.8897 462.721 81.7253 462.562 81.6358 462.441C81.3675 462.077 81.3929 461.731 81.7119 461.402C82.0756 461.133 82.7569 460.724 83.7557 460.175C84.6492 459.609 85.9894 458.761 87.7763 457.63C89.5633 456.5 91.8208 454.928 94.5489 452.916L135.653 422.597C137.714 421.076 139.118 419.807 139.864 418.788C140.55 417.814 140.647 416.994 140.155 416.327C139.931 416.024 139.521 415.531 138.924 414.848C138.282 414.105 137.64 413.361 136.998 412.618C136.132 411.571 136.003 410.824 136.609 410.377C137.033 410.064 137.539 409.925 138.126 409.96C138.608 409.979 138.961 410.14 139.185 410.443C140.679 411.962 142.273 413.36 143.965 414.64C145.597 415.963 147.65 417.351 150.125 418.802C150.725 419.108 151.122 419.33 151.317 419.467C151.467 419.543 151.609 419.673 151.744 419.855ZM153.335 432.863C152.172 431.286 150.638 430.031 148.732 429.097C146.765 428.207 144.69 427.678 142.507 427.51L126.071 439.493C124.434 440.701 123.185 442.371 122.324 444.503C121.419 446.576 121.107 448.818 121.389 451.231C121.566 453.628 122.482 455.948 124.136 458.191C125.165 459.586 126.752 460.849 128.898 461.981C131.043 463.113 133.677 463.511 136.798 463.174C139.859 462.882 143.421 461.238 147.483 458.242C150.938 455.693 153.347 453.12 154.708 450.525C156.01 447.974 156.669 445.568 156.687 443.308C156.66 440.988 156.3 438.913 155.607 437.084C154.808 435.24 154.05 433.833 153.335 432.863Z" fill="black"/>
<path d="M136.254 391.317C137.937 395.103 138.476 398.82 137.872 402.469C137.268 406.117 135.631 409.483 132.962 412.566C130.224 415.679 126.618 418.23 122.143 420.219C118.15 421.994 114.139 422.705 110.108 422.354C105.977 421.964 102.241 420.698 98.8979 418.557C95.5552 416.415 93.0882 413.555 91.497 409.975C90.273 407.222 89.7374 404.533 89.8902 401.909C90.0431 399.286 90.8575 396.945 92.3337 394.887C93.7103 392.792 95.6722 391.178 98.2192 390.045C100.353 389.097 101.879 389.655 102.797 391.72L112.482 413.508C112.91 414.471 113.492 415.037 114.226 415.206C114.861 415.336 115.936 415.064 117.45 414.391C120.754 412.922 123.462 410.853 125.573 408.183C127.615 405.544 128.927 402.653 129.508 399.509C130.02 396.396 129.634 393.394 128.348 390.502C127.43 388.437 126.226 386.747 124.734 385.431C123.143 384.078 121.299 383.083 119.204 382.449C118.737 382.326 118.439 382.212 118.309 382.105C118.11 382.028 117.964 381.887 117.873 381.68C117.628 381.129 117.85 380.701 118.538 380.395C119.846 379.814 121.567 379.791 123.701 380.326C125.468 380.777 127.155 381.511 128.761 382.528C130.367 383.546 131.794 384.808 133.041 386.314C134.357 387.791 135.427 389.458 136.254 391.317ZM109.189 414.724L105.012 405.328C104.278 403.675 103.616 402.279 103.027 401.14C102.438 400 101.796 398.926 101.1 397.916C100.878 397.602 100.579 397.488 100.205 397.572C99.7303 397.618 99.149 397.794 98.4606 398.1C96.4643 398.987 95.1756 400.632 94.5944 403.033C93.9138 405.397 94.109 407.783 95.18 410.193C95.8838 411.776 97.0695 413.145 98.737 414.3C100.336 415.486 102.053 416.289 103.889 416.709C105.724 417.13 107.331 417.034 108.708 416.422C109.396 416.116 109.556 415.55 109.189 414.724Z" fill="black"/>
<path d="M127.306 376.107C127.435 376.772 127.432 377.348 127.296 377.835C127.22 378.234 126.96 378.476 126.517 378.562C125.925 378.677 125.512 378.527 125.278 378.112C124.97 377.712 124.626 377.126 124.246 376.356C123.735 375.304 123.12 374.311 122.401 373.376C121.682 372.442 120.583 372.118 119.104 372.405L95.2552 377.041C93.2586 377.429 91.6009 377.981 90.2821 378.698C88.9489 379.341 88.2104 380.674 88.0664 382.697C87.976 383.022 87.8784 383.309 87.7736 383.56C87.5949 383.825 87.2837 384.001 86.84 384.087C86.0266 384.245 85.5182 383.998 85.3149 383.347C84.1463 380.888 82.9232 378.939 81.6456 377.499C80.3681 376.059 78.9868 374.677 77.5018 373.354C77.3107 373.161 77.1639 372.998 77.0612 372.864C76.8702 372.671 76.7531 372.464 76.71 372.242C76.6812 372.094 76.7336 371.969 76.8671 371.866C76.9863 371.689 77.1568 371.58 77.3786 371.536C77.8963 371.436 78.9901 371.338 80.6601 371.244C82.2418 371.09 83.5503 370.912 84.5856 370.711C84.8814 370.654 85.1772 370.596 85.473 370.539C85.6805 370.422 85.814 370.319 85.8736 370.231C82.9302 368.117 80.5496 365.74 78.7319 363.1C76.8999 360.387 75.646 357.292 74.9705 353.816C74.2662 350.193 75.1631 346.91 77.6611 343.969C80.1592 341.028 83.5897 339.133 87.9527 338.285L111.58 333.693C113.059 333.405 113.956 332.694 114.273 331.558C114.515 330.436 114.713 329.285 114.868 328.104C114.974 327.469 115.125 326.864 115.321 326.289C115.428 325.654 115.777 325.279 116.368 325.165C116.812 325.078 117.121 325.287 117.296 325.79C117.544 326.279 117.712 326.745 117.798 327.189C118.085 328.668 118.234 329.829 118.244 330.671C118.329 331.499 118.406 332.289 118.475 333.043C118.545 333.797 118.709 334.84 118.968 336.171C119.212 337.428 119.451 338.456 119.683 339.255C119.915 340.054 120.154 340.89 120.4 341.763C120.706 342.548 121.003 343.68 121.291 345.159C121.362 345.528 121.382 346.023 121.349 346.644C121.376 347.176 121.167 347.485 120.723 347.571C120.132 347.686 119.675 347.506 119.352 347.032C118.942 346.498 118.568 345.956 118.231 345.408C117.646 344.371 117.03 343.377 116.386 342.428C115.667 341.494 114.568 341.17 113.089 341.458L89.7947 345.985C86.5409 346.618 84.2063 348.031 82.7908 350.224C81.287 352.358 80.7928 354.949 81.3082 357.995C81.8256 360.657 82.7221 362.9 83.9975 364.724C85.1991 366.563 86.5793 368.137 88.1383 369.445C88.4916 369.683 88.9414 369.826 89.4878 369.873C89.9603 369.935 90.4183 369.923 90.862 369.837L117.595 364.641C119.074 364.353 119.971 363.642 120.288 362.506C120.604 361.37 120.803 360.218 120.883 359.052C120.996 357.265 121.422 356.299 122.162 356.155C122.605 356.069 122.937 356.197 123.157 356.538C123.451 356.864 123.669 357.397 123.813 358.137C124.101 359.616 124.257 360.813 124.281 361.729C124.365 362.557 124.442 363.348 124.512 364.102C124.582 364.856 124.746 365.898 125.005 367.229C125.249 368.487 125.487 369.515 125.719 370.314C125.937 371.039 126.169 371.838 126.416 372.711C126.722 373.496 127.018 374.628 127.306 376.107Z" fill="black"/>
</svg>
